<?xml version="1.0" encoding="utf-8"?>
<!-- Generator: Adobe Illustrator 19.2.1, SVG Export Plug-In . SVG Version: 6.00 Build 0)  -->
<svg version="1.1" id="layer" xmlns="http://www.w3.org/2000/svg" xmlns:xlink="http://www.w3.org/1999/xlink" x="0px" y="0px"
	 viewBox="0 0 652 652" style="enable-background:new 0 0 652 652;" xml:space="preserve">
<style type="text/css">
	.st0{fill:#C10202;}
</style>
<path class="st0" d="M553.5,233.7v3.9c36.4,5.7,32.5,14.3,12,67.4l-28.2,73.3l-38.3-100c-6.2-16.3-17.2-37.1,16.5-40.7v-3.9
	l-206.8,0v3.8c27,5.1,33.2,12.2,33.5,36.3l1.2,92.8L225.2,233.6h-84.9v3.8c33.5,3.3,35.9,18,35.9,50.3v26.7c0,31,5,83.4-46.6,83.4
	c-65.5,0-57.9-65.6-57.9-70.4v-52.1c0-28,0.5-33,31.8-37.9v-3.8H21v3.8c28.7,4.1,28.9,11.7,29.7,37.9v56.9
	c0,20.3-7.7,77.3,66.5,77.3c53.1,0,66.2-33.3,66.9-66.1l1.4-55.7c1-33.5-4.1-50.3,17.5-50.3c21.6,0,17,17,17,42.4V318
	c0,57.7,1.2,81.1-31.1,84.6v3.8h71.5v-3.8c-34.7-7.4-33.2-20.3-33.2-83.4v-46.8c40.4,46.3,83,86,121.2,134.1l3.1-0.8
	c-1.2-55.4,1-111.8,1-139.9c0-17.4,2.9-28.4,18-28.4c16.5,0,15.3,11.7,16.1,37.8v89.5c-0.7,26.2-1,33.8-29.7,37.9v3.8h117.9
	l13.6-47.3l-3.1-1.5c-18.4,32.5-24.4,44.5-60.7,41.7l-13.4-2.3c-3.6-12.2-3.6-25.7-3.6-38.4v-83.4c0-26.2,4-37.9,27.7-37.9
	c23.7,0,31.1,19.3,38.3,38.2l54.1,131h4.7l44.3-109c14.8-37.6,21.8-58,44.2-60.1v-3.9H553.5z"/>
</svg>
